HIERARCHY
ROOT Hips
{
	OFFSET 0.000000 0.000000 0.000000
	CHANNELS 6 Xposition Yposition Zposition Zrotation Yrotation Xrotation 
	JOINT LHipJoint
	{
		OFFSET 0.000000 0.000000 0.000000
		CHANNELS 3 Zrotation Yrotation Xrotation
		JOINT LeftUpLeg
		{
			OFFSET 1.363060 -1.794630 0.839290
			CHANNELS 3 Zrotation Yrotation Xrotation
			JOINT LeftLeg
			{
				OFFSET 2.448110 -6.726130 0.000000
				CHANNELS 3 Zrotation Yrotation Xrotation
				JOINT LeftFoot
				{
					OFFSET 2.562200 -7.039590 0.000000
					CHANNELS 3 Zrotation Yrotation Xrotation
					JOINT LeftToeBase
					{
						OFFSET 0.157640 -0.433110 2.322550
						CHANNELS 3 Zrotation Yrotation Xrotation
						End Site
						{
							OFFSET 0.000000 0.000000 0.000000
						}
					}
				}
			}
		}
	}
	JOINT RHipJoint
	{
		OFFSET 0.000000 0.000000 0.000000
		CHANNELS 3 Zrotation Yrotation Xrotation
		JOINT RightUpLeg
		{
			OFFSET -1.305520 -1.794630 0.839290
			CHANNELS 3 Zrotation Yrotation Xrotation
			JOINT RightLeg
			{
				OFFSET -2.542530 -6.985550 0.000000
				CHANNELS 3 Zrotation Yrotation Xrotation
				JOINT RightFoot
				{
					OFFSET -2.568260 -7.056230 0.000000
					CHANNELS 3 Zrotation Yrotation Xrotation
					JOINT RightToeBase
					{
						OFFSET -0.164730 -0.452590 2.363150
						CHANNELS 3 Zrotation Yrotation Xrotation
						End Site
						{
							OFFSET 0.000000 0.000000 0.000000
						}
					}
				}
			}
		}
	}
	JOINT LowerBack
	{
		OFFSET 0.000000 0.000000 0.000000
		CHANNELS 3 Zrotation Yrotation Xrotation
		JOINT Spine
		{
			OFFSET 0.028270 2.035590 -0.193380
			CHANNELS 3 Zrotation Yrotation Xrotation
			JOINT Spine1
			{
				OFFSET 0.056720 2.048850 -0.042750
				CHANNELS 3 Zrotation Yrotation Xrotation
				JOINT Neck
				{
					OFFSET 0.000000 0.000000 0.000000
					CHANNELS 3 Zrotation Yrotation Xrotation
					JOINT Neck1
					{
						OFFSET -0.054170 1.746240 0.172020
						CHANNELS 3 Zrotation Yrotation Xrotation
						JOINT Head
						{
							OFFSET 0.104070 1.761360 -0.123970
							CHANNELS 3 Zrotation Yrotation Xrotation
							End Site
							{
								OFFSET 0.000000 0.000000 0.000000
							}
						}
					}
				}
				JOINT LeftShoulder
				{
					OFFSET 0.000000 0.000000 0.000000
					CHANNELS 3 Zrotation Yrotation Xrotation
					JOINT LeftArm
					{
						OFFSET 3.362410 1.200890 -0.311210
						CHANNELS 3 Zrotation Yrotation Xrotation
						JOINT LeftForeArm
						{
							OFFSET 4.983000 -0.000000 -0.000000
							CHANNELS 3 Zrotation Yrotation Xrotation
							JOINT LeftHand
							{
								OFFSET 3.483560 -0.000000 -0.000000
								CHANNELS 3 Zrotation Yrotation Xrotation
								JOINT LeftFingerBase
								{
									OFFSET 0.000000 0.000000 0.000000
									CHANNELS 3 Zrotation Yrotation Xrotation
									JOINT LeftHandIndex1
									{
										OFFSET 0.715260 -0.000000 -0.000000
										CHANNELS 3 Zrotation Yrotation Xrotation
										End Site
										{
											OFFSET 0.000000 0.000000 0.000000
										}
									}
								}
								JOINT LThumb
								{
									OFFSET 0.000000 0.000000 0.000000
									CHANNELS 3 Zrotation Yrotation Xrotation
									End Site
									{
										OFFSET 0.000000 0.000000 0.000000
									}
								}
							}
						}
					}
				}
				JOINT RightShoulder
				{
					OFFSET 0.000000 0.000000 0.000000
					CHANNELS 3 Zrotation Yrotation Xrotation
					JOINT RightArm
					{
						OFFSET -3.136600 1.374050 -0.404650
						CHANNELS 3 Zrotation Yrotation Xrotation
						JOINT RightForeArm
						{
							OFFSET -5.241900 -0.000000 -0.000000
							CHANNELS 3 Zrotation Yrotation Xrotation
							JOINT RightHand
							{
								OFFSET -3.444170 -0.000000 -0.000000
								CHANNELS 3 Zrotation Yrotation Xrotation
								JOINT RightFingerBase
								{
									OFFSET 0.000000 0.000000 0.000000
									CHANNELS 3 Zrotation Yrotation Xrotation
									JOINT RightHandIndex1
									{
										OFFSET -0.622530 -0.000000 -0.000000
										CHANNELS 3 Zrotation Yrotation Xrotation
										End Site
										{
											OFFSET 0.000000 0.000000 0.000000
										}
									}
								}
								JOINT RThumb
								{
									OFFSET 0.000000 0.000000 0.000000
									CHANNELS 3 Zrotation Yrotation Xrotation
									End Site
									{
										OFFSET 0.000000 0.000000 0.000000
									}
								}
							}
						}
					}
				}
			}
		}
	}
}
MOTION
Frames: 11
Frame Time: 0.008333
-12.151259 17.772486 -1.111763 35.470931 89.038263 63.251343 -12.157947 3.648046 1.950180 -4.648614 6.317900 -13.407659 -1.111042 0.172448 11.648392 0.785994 5.081968 17.623448 1.985100 0.000000 -57.699700 9.707295 -0.808454 1.640759 7.141340 -2.290066 -45.677535 0.601951 -3.311148 48.744253 -0.789062 -2.548327 -1.591637 -0.548501 0.000000 -55.533900 3.217433 -1.993241 -3.697929 1.162210 -2.190794 -4.018303 -0.972384 -2.255076 -1.867917 -1.287488 -3.708428 -9.182776 0.437942 0.072678 -0.529802 0.000000 0.000000 0.000000 14.284932 -0.495302 5.759083 26.849436 -56.813528 -38.557816 -0.615512 -26.330260 -0.001722 0.279967 -0.348607 -0.002463 -0.071216 0.456096 -0.000000 0.000000 0.000000 0.000000 0.000000 0.000000 0.000000 -11.646675 2.714642 -0.756491 8.292397 70.329117 -21.087635 -1.158262 40.097546 0.062119 10.721205 -2.227762 -0.188817 -0.303599 -0.266758 0.000000 0.000000 0.000000 0.000000 0.000000 0.000000 0.000000 
-11.892798 17.829686 -1.081939 44.140913 89.088424 72.171584 -12.348126 3.686656 1.862265 -4.305571 6.773525 -13.117717 -0.997859 0.219401 11.777757 0.888928 5.550890 19.307912 2.255700 0.000000 -55.382200 9.423106 -0.915840 1.862501 7.666717 -2.043070 -46.154482 1.018400 -3.089777 44.698872 -0.604376 -1.626905 -1.308312 -0.489800 0.000000 -57.148400 3.649422 -1.965964 -3.804680 1.218494 -2.200652 -4.069146 -1.154639 -2.259780 -1.975470 -1.459152 -3.810917 -9.299595 0.325745 0.066432 -0.574669 0.000000 0.000000 0.000000 14.277943 -0.578048 6.107904 26.913900 -56.710866 -34.233138 -0.928626 -26.287006 0.004481 -0.527128 -0.223819 0.002822 -0.064452 0.433278 -0.000000 0.000000 0.000000 0.000000 0.000000 0.000000 0.000000 -11.284403 2.588825 -1.077488 11.582532 70.404968 -20.245371 -1.391138 41.081705 0.059534 9.751438 -1.614868 -0.115442 -0.298775 -0.297861 0.000000 0.000000 0.000000 0.000000 0.000000 0.000000 0.000000 
-11.634222 17.873541 -1.049144 60.339491 89.076211 88.622333 -12.526321 3.671535 1.757954 -4.007039 7.106852 -12.824381 -0.870489 0.247025 12.182593 0.998391 6.243509 20.516334 2.617600 0.000000 -53.113000 9.137656 -1.078268 2.140252 8.022517 -1.683500 -46.516810 1.461851 -2.842094 40.485316 -0.407906 -0.685122 -0.999897 -0.417000 -0.000001 -58.682700 4.020831 -1.974153 -3.932352 1.263301 -2.242757 -4.129763 -1.344383 -2.297619 -2.108359 -1.603760 -3.878879 -9.402081 0.218004 0.060222 -0.615126 0.000000 0.000000 0.000000 14.311705 -0.646868 6.445474 26.924349 -56.661550 -29.976255 -1.226738 -26.358044 0.010382 -1.392543 -0.065619 0.005699 -0.055484 0.408275 -0.000000 0.000000 0.000000 0.000000 0.000000 0.000000 0.000000 -10.933631 2.464719 -1.436062 15.069271 70.514445 -19.490267 -1.654992 41.869909 0.054206 8.509269 -0.750643 -0.031485 -0.290138 -0.336580 0.000000 0.000000 0.000000 0.000000 0.000000 0.000000 0.000000 
-11.376045 17.903275 -1.011967 82.109128 88.983526 110.632571 -12.605615 3.617901 1.625210 -3.756921 7.326512 -12.536034 -0.739659 0.260648 12.922913 1.101378 7.062551 21.243481 3.028100 0.000001 -50.815000 8.933402 -1.256569 2.476892 8.180831 -1.249284 -46.751193 1.911598 -2.558533 36.128822 -0.211796 0.216234 -0.624829 -0.335300 0.000000 -60.115600 4.387561 -2.024350 -4.071213 1.303668 -2.327446 -4.200035 -1.551205 -2.377255 -2.273242 -1.721076 -3.895797 -9.483800 0.113821 0.053800 -0.648598 0.000000 0.000000 0.000000 14.372032 -0.716397 6.774558 26.912993 -56.634732 -25.811893 -1.508563 -26.544866 0.016067 -2.345777 0.113620 0.005668 -0.043213 0.381516 -0.000000 0.000000 0.000000 0.000000 0.000000 0.000000 0.000000 -10.596404 2.342669 -1.837293 18.884445 70.659848 -18.774233 -1.958788 42.468997 0.045916 7.071961 0.347563 0.047154 -0.279737 -0.382764 -0.000000 0.000000 0.000000 0.000000 0.000000 0.000000 0.000000 
-11.118297 17.918731 -0.970200 94.148610 88.800909 122.877149 -12.606995 3.597409 1.480397 -3.566435 7.432019 -12.201539 -0.620005 0.288284 13.912428 1.215775 7.994113 21.598049 3.469300 0.000000 -48.989400 8.809286 -1.342115 2.824843 8.139875 -0.732341 -46.787290 2.318651 -2.195617 31.718459 -0.019059 1.039278 -0.151864 -0.250200 0.000000 -61.078600 4.713033 -2.061908 -4.188487 1.327450 -2.397249 -4.271986 -1.779024 -2.442099 -2.466823 -1.795892 -3.861650 -9.544271 0.009187 0.046835 -0.674758 0.000000 0.000000 0.000000 14.489302 -0.745670 7.081294 26.800895 -56.652168 -21.812545 -1.772072 -26.835502 0.021437 -3.403338 0.332371 0.000929 -0.027139 0.352671 0.000000 0.000000 0.000000 0.000000 0.000000 0.000000 0.000000 -10.232785 2.242423 -2.266796 22.919244 70.860514 -18.118938 -2.306175 42.883093 0.033851 5.454642 1.714802 0.107773 -0.267988 -0.437200 -0.000000 0.000000 0.000000 0.000000 0.000000 0.000000 0.000000 
-10.861168 17.919453 -0.923332 98.300849 88.514493 127.172751 -12.598570 3.605000 1.324830 -3.467597 7.466652 -11.836637 -0.514897 0.334868 15.197004 1.331854 8.908614 21.628972 3.872000 -0.000000 -47.588200 8.717600 -1.348391 3.155950 7.874621 -0.211744 -46.639121 2.658363 -1.770326 27.397684 0.160219 1.739470 0.431178 -0.168500 -0.000000 -61.509400 4.901942 -2.105454 -4.264369 1.317696 -2.463205 -4.340913 -2.020663 -2.505142 -2.686522 -1.830046 -3.768435 -9.581281 -0.096981 0.039232 -0.692435 0.000000 0.000000 0.000000 14.661276 -0.743891 7.357562 26.578937 -56.703447 -18.027134 -2.015162 -27.215903 0.026401 -4.581711 0.591170 -0.010419 -0.006745 0.321872 0.000000 0.000000 0.000000 0.000000 0.000000 0.000000 0.000000 -9.831556 2.150589 -2.706838 27.186576 71.122267 -17.516853 -2.698441 43.147729 0.017842 3.737468 3.297255 0.132474 -0.256478 -0.498837 0.000000 0.000000 0.000000 0.000000 0.000000 0.000000 0.000000 
-10.604763 17.905265 -0.871437 99.369243 88.122589 128.291557 -12.579375 3.632127 1.157706 -3.456778 7.442725 -11.422413 -0.423327 0.399262 16.777335 1.439541 9.721807 21.419304 4.195499 0.000000 -46.621001 8.664420 -1.296397 3.444858 7.410049 0.227836 -46.334275 2.914479 -1.325602 23.355924 0.313981 2.287794 1.087802 -0.095000 -0.000000 -61.362000 4.952050 -2.176262 -4.280546 1.274933 -2.545391 -4.400456 -2.271915 -2.586558 -2.923181 -1.828995 -3.615931 -9.594624 -0.207360 0.030773 -0.701329 0.000000 0.000000 0.000000 14.880112 -0.717872 7.592350 26.241469 -56.784777 -14.519242 -2.234036 -27.664277 0.030807 -5.889188 0.900529 -0.031078 0.018282 0.289319 0.000000 0.000000 0.000000 0.000000 0.000000 0.000000 0.000000 -9.377569 2.049481 -3.129919 31.619027 71.453029 -16.981638 -3.128228 43.309177 -0.002282 1.966729 5.031450 0.108157 -0.245485 -0.566112 0.000000 0.000000 0.000000 0.000000 0.000000 0.000000 0.000000 
-10.348983 17.876383 -0.815086 99.590251 87.634528 128.449734 -12.541899 3.679432 0.984449 -3.518814 7.371107 -10.950554 -0.343729 0.482078 18.633731 1.534051 10.385087 21.063131 4.422600 -0.000000 -46.128400 8.657989 -1.198515 3.668170 6.803072 0.530998 -45.922386 3.078054 -0.909198 19.818844 0.433463 2.679409 1.734287 -0.033700 0.000000 -60.660100 4.884061 -2.280171 -4.228283 1.204961 -2.650496 -4.444876 -2.526395 -2.692828 -3.162780 -1.801577 -3.409422 -9.584261 -0.324227 0.021287 -0.701455 0.000000 0.000000 0.000000 15.128139 -0.667428 7.774713 25.779767 -56.898735 -11.343837 -2.426661 -28.154437 0.034486 -7.324654 1.273817 -0.065152 0.047762 0.255263 0.000000 0.000000 0.000000 0.000000 0.000000 0.000000 0.000000 -8.860385 1.928562 -3.504924 36.116641 71.862428 -16.533462 -3.581194 43.419531 -0.026593 0.152542 6.845758 0.025022 -0.234064 -0.637043 -0.000000 0.000000 0.000000 0.000000 0.000000 0.000000 0.000000 
-10.093525 17.833201 -0.755557 99.904824 87.082558 128.586838 -12.489066 3.744548 0.810788 -3.614377 7.285893 -10.447356 -0.273432 0.583531 20.757042 1.611279 10.850333 20.627342 4.537400 0.000000 -46.010200 8.691465 -1.074511 3.819610 6.132953 0.702778 -45.464295 3.152498 -0.561862 16.986961 0.509271 2.900122 2.256241 0.004900 -0.000000 -59.477700 4.740022 -2.412318 -4.116335 1.119480 -2.776659 -4.471479 -2.774685 -2.821645 -3.388209 -1.760994 -3.158891 -9.549707 -0.449009 0.010673 -0.692901 0.000000 0.000000 0.000000 15.375232 -0.589709 7.896748 25.202794 -57.048555 -8.555512 -2.592501 -28.659756 0.037288 -8.874569 1.726433 -0.117436 0.080936 0.220067 0.000000 0.000000 0.000000 0.000000 0.000000 0.000000 0.000000 -8.279698 1.784432 -3.803852 40.561154 72.356951 -16.185098 -4.036390 43.528026 -0.055118 -1.739836 8.675645 -0.125432 -0.219798 -0.709475 0.000000 0.000000 0.000000 0.000000 0.000000 0.000000 0.000000 
-9.838085 17.776458 -0.694278 100.455238 86.501736 128.858609 -12.428253 3.824349 0.645816 -3.708495 7.197980 -9.937207 -0.206741 0.701859 23.111056 1.672519 11.121753 20.187241 4.554800 -0.000000 -46.271500 8.750129 -0.942829 3.905746 5.461796 0.786005 -45.020644 3.148659 -0.309809 15.010649 0.533061 2.931720 2.524214 0.007800 0.000000 -57.906401 4.556608 -2.561257 -3.966107 1.029537 -2.915463 -4.480390 -3.006168 -2.963985 -3.582499 -1.718298 -2.878027 -9.488584 -0.582306 -0.001120 -0.675294 0.000000 0.000000 0.000000 15.590190 -0.483571 7.953904 24.526926 -57.239410 -6.198541 -2.731843 -29.156595 0.039104 -10.509467 2.272862 -0.193729 0.116469 0.184169 0.000000 0.000000 0.000000 0.000000 0.000000 0.000000 0.000000 -7.639210 1.621506 -4.008618 44.829456 72.932612 -15.936097 -4.469772 43.671811 -0.087913 -3.785208 10.474085 -0.354806 -0.199205 -0.781298 0.000000 0.000000 0.000000 0.000000 0.000000 0.000000 0.000000 
-9.582227 17.707005 -0.633043 101.423568 85.944940 129.475104 -12.372309 3.908564 0.492802 -3.740667 7.144348 -9.474006 -0.138737 0.833841 25.683988 1.717007 11.186852 19.763162 4.475600 0.000000 -46.665700 8.811900 -0.827160 3.953808 4.844196 0.884154 -44.635465 3.078339 -0.159570 13.950737 0.490725 2.712415 2.431372 -0.045401 0.000000 -56.049001 4.392039 -2.711019 -3.812131 0.950340 -3.055913 -4.476056 -3.211478 -3.107883 -3.733511 -1.686450 -2.582878 -9.396847 -0.723021 -0.014033 -0.647710 0.000000 0.000000 0.000000 15.739755 -0.350284 7.945187 23.768840 -57.477785 -4.300086 -2.844458 -29.629081 0.039911 -12.181875 2.922974 -0.299331 0.152526 0.148178 0.000000 0.000000 0.000000 0.000000 0.000000 0.000000 0.000000 -6.957953 1.448933 -4.116917 48.811648 73.570925 -15.765989 -4.860022 43.866935 -0.124980 -6.078265 12.214269 -0.679702 -0.168564 -0.850593 0.000000 0.000000 0.000000 0.000000 0.000000 0.000000 0.000000 
